<?xml version="1.0" encoding="UTF-8"?>
<!-- Generator: visioncortex VTracer 0.6.4 -->
<svg version="1.1" xmlns="http://www.w3.org/2000/svg" width="2422" height="1760">
<path d="M0,0 L627,0 L651,2 L682,7 L715,15 L745,25 L771,36 L801,51 L819,62 L831,70 L850,84 L864,96 L879,110 L898,129 L905,137 L918,153 L932,173 L945,194 L957,216 L968,240 L977,264 L986,293 L992,320 L997,353 L999,379 L999,421 L997,446 L992,480 L987,502 L980,527 L974,545 L964,570 L952,595 L937,620 L926,636 L916,649 L908,659 L899,669 L894,675 L890,679 L888,679 L888,681 L886,681 L884,685 L880,687 L880,689 L872,696 L862,705 L848,716 L830,729 L815,739 L795,751 L768,765 L742,776 L709,787 L686,793 L655,799 L620,803 L657,810 L691,815 L718,817 L753,817 L784,815 L813,812 L821,821 L831,834 L841,847 L849,857 L859,870 L872,887 L885,904 L899,922 L909,935 L923,953 L933,966 L942,978 L953,992 L963,1005 L973,1018 L987,1036 L997,1049 L1007,1062 L1021,1080 L1036,1100 L1045,1111 L1055,1124 L1068,1141 L1068,1143 L1070,1143 L1078,1154 L1092,1172 L1104,1188 L1112,1198 L1118,1206 L1118,1208 L834,1208 L826,1199 L814,1183 L800,1165 L790,1152 L780,1139 L770,1126 L760,1113 L744,1092 L731,1075 L721,1062 L709,1046 L695,1028 L685,1015 L676,1003 L666,990 L653,973 L639,955 L629,942 L613,921 L601,905 L591,892 L578,875 L568,862 L560,852 L550,839 L537,822 L529,811 L357,810 L355,808 L370,751 L381,709 L395,656 L408,608 L411,597 L600,596 L621,593 L640,588 L658,582 L681,571 L698,560 L712,549 L722,540 L723,538 L725,538 L725,536 L727,536 L729,532 L736,524 L747,508 L759,485 L766,467 L771,448 L774,430 L775,421 L775,385 L772,364 L766,340 L758,320 L747,299 L737,284 L728,273 L718,262 L710,255 L695,243 L673,230 L655,222 L636,216 L619,212 L603,210 L224,209 L203,207 L180,202 L161,195 L141,185 L126,175 L116,167 L106,158 L100,153 L93,145 L81,132 L66,112 L55,96 L41,74 L27,50 L13,25 L1,3 Z " fill="#d9fdd3" transform="translate(837,267)"/>
<path d="M0,0 L11,1 L8,3 L-12,14 L-24,22 L-40,34 L-54,46 L-73,65 L-79,73 L-81,73 L-83,77 L-95,93 L-105,108 L-114,123 L-121,137 L-129,153 L-139,177 L-148,204 L-158,241 L-175,311 L-187,362 L-196,398 L-206,439 L-219,490 L-230,528 L-240,560 L-253,594 L-263,618 L-274,642 L-288,669 L-302,693 L-316,715 L-329,733 L-339,746 L-351,760 L-361,771 L-368,779 L-385,796 L-393,803 L-404,813 L-418,824 L-436,837 L-457,851 L-474,861 L-503,876 L-529,887 L-562,898 L-594,906 L-621,911 L-641,914 L-661,916 L-679,917 L-807,917 L-807,709 L-694,709 L-668,706 L-645,701 L-618,692 L-597,682 L-577,670 L-563,660 L-549,648 L-546,647 L-546,645 L-538,638 L-531,631 L-523,621 L-521,621 L-519,617 L-509,604 L-491,577 L-480,558 L-469,535 L-460,514 L-453,494 L-441,458 L-423,392 L-414,357 L-399,301 L-388,266 L-377,238 L-363,209 L-351,188 L-336,166 L-322,148 L-311,135 L-297,121 L-296,119 L-294,119 L-294,117 L-286,110 L-274,99 L-257,86 L-241,74 L-224,63 L-201,50 L-174,37 L-143,25 L-114,16 L-88,10 L-58,5 L-18,1 Z " fill="#d9fdd3" transform="translate(1338,558)"/>
</svg>
